<?xml version="1.0" encoding="UTF-8"?>
<svg xmlns="http://www.w3.org/2000/svg" xmlns:xlink="http://www.w3.org/1999/xlink" width="120pt" height="113pt" viewBox="0 0 120 113" version="1.1">
<g id="surface1">
<path style=" stroke:none;fill-rule:nonzero;fill:rgb(0%,0%,0%);fill-opacity:1;" d="M 56.824219 31.847656 L 67.851562 35.003906 C 68.648438 35.222656 69.199219 35.976562 69.199219 36.792969 C 69.199219 37.804688 68.359375 38.644531 67.34375 38.644531 L 60.109375 38.644531 C 59.316406 38.644531 58.542969 38.46875 57.839844 38.160156 C 56.78125 37.675781 55.542969 37.785156 54.726562 38.601562 L 50.867188 42.464844 C 49.699219 43.632812 49.832031 45.621094 51.199219 46.523438 C 53.292969 47.914062 55.675781 48.753906 58.214844 49.0625 L 58.214844 52.96875 C 58.214844 54.910156 59.800781 56.5 61.742188 56.5 L 65.273438 56.5 C 67.214844 56.5 68.800781 54.910156 68.800781 52.96875 L 68.800781 49.085938 C 75.484375 48.289062 80.558594 42.242188 79.675781 35.179688 C 79.035156 30.105469 75.109375 26.066406 70.214844 24.652344 L 59.183594 21.496094 C 58.390625 21.277344 57.839844 20.523438 57.839844 19.707031 C 57.839844 18.695312 58.675781 17.855469 59.691406 17.855469 L 66.925781 17.855469 C 67.71875 17.855469 68.492188 18.03125 69.199219 18.339844 C 70.257812 18.824219 71.492188 18.714844 72.308594 17.898438 L 76.167969 14.035156 C 77.339844 12.867188 77.207031 10.878906 75.839844 9.976562 C 73.742188 8.585938 71.359375 7.746094 68.824219 7.4375 L 68.824219 3.53125 C 68.824219 1.589844 67.234375 0 65.292969 0 L 61.765625 0 C 59.824219 0 58.234375 1.589844 58.234375 3.53125 L 58.234375 7.414062 C 51.550781 8.210938 46.476562 14.257812 47.359375 21.320312 C 48 26.394531 51.925781 30.433594 56.824219 31.847656 Z M 117.773438 72.414062 C 115.300781 70.050781 111.484375 70.207031 108.882812 72.414062 L 89.648438 88.722656 C 87.285156 90.730469 84.351562 91.8125 81.308594 91.8125 L 56.667969 91.8125 C 54.839844 91.8125 53.339844 90.222656 53.339844 88.28125 C 53.339844 86.339844 54.839844 84.75 56.667969 84.75 L 72.96875 84.75 C 76.300781 84.75 79.367188 82.34375 79.898438 78.878906 C 80.582031 74.464844 77.359375 70.625 73.324219 70.625 L 39.992188 70.625 C 34.367188 70.625 28.917969 72.675781 24.574219 76.429688 L 14.890625 84.75 L 3.332031 84.75 C 1.5 84.75 0 86.339844 0 88.28125 L 0 109.46875 C 0 111.410156 1.5 113 3.332031 113 L 77.648438 113 C 80.667969 113 83.601562 111.917969 85.984375 109.910156 L 117.484375 83.203125 C 120.660156 80.535156 120.90625 75.414062 117.773438 72.414062 Z M 117.773438 72.414062 "/>
</g>
</svg>
